<svg width="64" height="64" viewBox="0 0 64 64" fill="none" xmlns="http://www.w3.org/2000/svg">
<path d="M41.077 34.489C33.1672 34.489 28.4443 28.4684 28.4443 18.3705C28.4443 8.27258 33.1672 2.25195 41.077 2.25195C49.0636 2.25195 53.748 8.27258 53.748 18.3705C53.748 28.4684 49.0636 34.489 41.077 34.489ZM36.3925 18.3705C36.3925 24.5054 38.3124 26.8679 41.077 26.8679C43.88 26.8679 45.7998 24.5054 45.7998 18.3705C45.7998 12.2355 43.88 9.873 41.077 9.873C38.3124 9.873 36.3925 12.2355 36.3925 18.3705Z" fill="black"/>
<path d="M16.0514 33.9068C15.6319 33.9068 15.403 33.6398 15.403 33.2203V12.435L10.1018 14.1512C10.0256 14.1893 9.94928 14.1893 9.83487 14.1893C9.60604 14.1893 9.37721 14.0749 9.2628 13.7698L8.19493 11.6341C8.15679 11.5197 8.11865 11.3671 8.11865 11.2527C8.11865 11.062 8.19493 10.8713 8.38562 10.7188L17.1193 3.16741C17.3862 2.93858 17.6151 2.8623 17.9202 2.8623H22.6111C23.0307 2.8623 23.2976 3.12927 23.2976 3.54879V33.2203C23.2976 33.6398 23.0307 33.9068 22.6111 33.9068H16.0514Z" fill="black"/>
<path d="M41.1028 62.2266C33.4215 62.2266 28.4443 57.3278 28.4443 50.2343C28.4443 43.1801 33.4215 38.2812 41.1028 38.2812C48.7842 38.2812 53.7614 43.1801 53.7614 50.2343C53.7614 57.3278 48.7842 62.2266 41.1028 62.2266ZM36.3608 50.2343C36.3608 53.252 38.2811 55.3683 41.1028 55.3683C43.9246 55.3683 45.8449 53.252 45.8449 50.2343C45.8449 47.2167 43.9246 45.1396 41.1028 45.1396C38.2811 45.1396 36.3608 47.2167 36.3608 50.2343Z" fill="black"/>
<path d="M15.4438 39.3782C15.4438 38.9862 15.7182 38.7119 16.1493 38.7119H22.5765C23.0076 38.7119 23.2819 38.9862 23.2819 39.3782V61.0897C23.2819 61.5208 23.0076 61.7951 22.5765 61.7951H16.1493C15.7182 61.7951 15.4438 61.5208 15.4438 61.0897V39.3782Z" fill="black"/>
</svg>
