<svg width="1080" height="1080" viewBox="0 0 1080 1080" fill="none" xmlns="http://www.w3.org/2000/svg">
<path d="M693.176 582C559.698 582 480 480.402 480 310C480 139.598 559.698 38 693.176 38C827.95 38 907 139.598 907 310C907 480.402 827.95 582 693.176 582ZM614.126 310C614.126 413.527 646.524 453.395 693.176 453.395C740.477 453.395 772.874 413.527 772.874 310C772.874 206.473 740.477 166.605 693.176 166.605C646.524 166.605 614.126 206.473 614.126 310Z" fill="currentColor"/>
<path d="M270.865 572.172C263.786 572.172 259.924 567.667 259.924 560.588V209.836L170.466 238.797C169.179 239.441 167.892 239.441 165.961 239.441C162.1 239.441 158.238 237.51 156.307 232.361L138.287 196.321C137.644 194.39 137 191.816 137 189.885C137 186.667 138.287 183.449 141.505 180.875L288.885 53.4455C293.39 49.584 297.252 48.2969 302.4 48.2969H381.561C388.64 48.2969 393.145 52.8019 393.145 59.8813V560.588C393.145 567.667 388.64 572.172 381.561 572.172H270.865Z" fill="currentColor"/>
<path d="M693.612 1050.08C563.99 1050.08 480 967.411 480 847.708C480 728.667 563.99 646 693.612 646C823.235 646 907.225 728.667 907.225 847.708C907.225 967.411 823.235 1050.08 693.612 1050.08ZM613.59 847.708C613.59 898.631 645.996 934.344 693.612 934.344C741.229 934.344 773.634 898.631 773.634 847.708C773.634 796.785 741.229 761.734 693.612 761.734C645.996 761.734 613.59 796.785 613.59 847.708Z" fill="currentColor"/>
<path d="M260.613 664.517C260.613 657.904 265.243 653.274 272.517 653.274H380.977C388.252 653.274 392.881 657.904 392.881 664.517V1030.9C392.881 1038.17 388.252 1042.8 380.977 1042.8H272.517C265.243 1042.8 260.613 1038.17 260.613 1030.9V664.517Z" fill="currentColor"/>
</svg>
